<svg width="512" height="512" viewBox="0 0 512 512" fill="none" xmlns="http://www.w3.org/2000/svg">
  <circle cx="256" cy="256" r="256" fill="#0F172A"/>
  
  <path d="M150 120 H 362 C 384.091 120 402 137.909 402 160 V 210 C 385.431 210 372 223.431 372 240 C 372 256.569 385.431 270 402 270 V 352 C 402 374.091 384.091 392 362 392 H 150 C 127.909 392 110 374.091 110 352 V 270 C 126.569 270 140 256.569 140 240 C 140 223.431 126.569 210 110 210 V 160 C 110 137.909 127.909 120 150 120 Z" fill="#3B82F6"/>
  
  <path d="M220 320 V 190 H 270 C 305 190 325 210 325 235 C 325 265 300 275 270 275 H 250 V 320 H 220 Z" fill="white"/>
</svg>